<svg width="18" height="18" viewBox="0 0 18 18" fill="none" xmlns="http://www.w3.org/2000/svg">
<path d="M2.66684 15.6666H10.6668" stroke="#94A1B2" stroke-opacity="0.9" stroke-linecap="round" stroke-linejoin="round"/>
<path d="M3.33383 6.99999H10.0005" stroke="#94A1B2" stroke-opacity="0.9" stroke-linecap="round" stroke-linejoin="round"/>
<path d="M10.0005 15.6667V3.66667C10.0005 3.31305 9.86002 2.97391 9.60997 2.72386C9.35993 2.47381 9.02079 2.33333 8.66716 2.33333H4.66717C4.31354 2.33333 3.9744 2.47381 3.72436 2.72386C3.47431 2.97391 3.33383 3.31305 3.33383 3.66667V15.6667" stroke="#94A1B2" stroke-opacity="0.9" stroke-linecap="round" stroke-linejoin="round"/>
<path d="M9.99985 9.66667H11.3332C11.6868 9.66667 12.0259 9.80714 12.276 10.0572C12.526 10.3072 12.6665 10.6464 12.6665 11V12.3333C12.6665 12.687 12.807 13.0261 13.057 13.2761C13.3071 13.5262 13.6462 13.6667 13.9998 13.6667C14.3535 13.6667 14.6926 13.5262 14.9427 13.2761C15.1927 13.0261 15.3332 12.687 15.3332 12.3333V7.55333C15.3333 7.37739 15.2986 7.20316 15.2311 7.04069C15.1636 6.87821 15.0646 6.73071 14.9398 6.60667L12.6665 4.33333" stroke="#94A1B2" stroke-opacity="0.9" stroke-linecap="round" stroke-linejoin="round"/>
</svg>
