<svg width="34" height="33" viewBox="0 0 34 33" fill="none" xmlns="http://www.w3.org/2000/svg">
<path d="M9.83724 10.72C9.83724 7.01969 12.9832 4.02 16.8638 4.02C20.7445 4.02 23.8905 7.01969 23.8905 10.72C23.8905 14.4203 20.7445 17.42 16.8638 17.42C12.9832 17.42 9.83724 14.4203 9.83724 10.72ZM16.8638 14.74C19.1923 14.74 21.0798 12.9402 21.0798 10.72C21.0798 8.49982 19.1923 6.7 16.8638 6.7C14.5354 6.7 12.6479 8.49982 12.6479 10.72C12.6479 12.9402 14.5354 14.74 16.8638 14.74Z" fill="#29183B"/>
<path d="M8.91415 21.8998C6.80576 23.9102 5.62128 26.6369 5.62128 29.48H8.43192C8.43192 27.3477 9.32028 25.3027 10.9016 23.7949C12.4829 22.2871 14.6276 21.44 16.8638 21.44C19.1001 21.44 21.2448 22.2871 22.8261 23.7949C24.4074 25.3027 25.2958 27.3477 25.2958 29.48H28.1064C28.1064 26.6369 26.9219 23.9102 24.8135 21.8998C22.7052 19.8894 19.8456 18.76 16.8638 18.76C13.8821 18.76 11.0225 19.8894 8.91415 21.8998Z" fill="#29183B"/>
</svg>
