<svg width="157" height="72" viewBox="0 0 157 72" fill="none" xmlns="http://www.w3.org/2000/svg">
<path d="M107.536 57.4967L67.3481 57.3899" stroke="#2A1246" stroke-width="6.64" stroke-miterlimit="10"/>
<path d="M42.0156 57.3898H29.4641C26.5333 57.3898 24.152 55.0123 24.152 52.0777V42.167C24.152 33.8553 30.8876 27.1198 39.1954 27.1198H128.021C141.805 27.1198 152.979 38.2936 152.979 52.0777V57.3898L134.875 57.5195" stroke="#2A1246" stroke-width="6.64" stroke-miterlimit="10"/>
<path d="M30.5196 40.9769H24.4404V50.4716H30.5196C32.6223 50.4716 35.7706 49.7389 35.7554 45.1786C35.7439 41.9882 32.6223 40.9769 30.5196 40.9769Z" stroke="#2A1246" stroke-width="6.64" stroke-miterlimit="10"/>
<path d="M149.501 42.5597H138.289C133.923 42.5597 130.382 39.0221 130.382 34.6526H139.453C144.227 34.6526 148.379 37.9231 149.501 42.5597Z" stroke="#2A1246" stroke-width="6.64" stroke-miterlimit="10"/>
<path d="M91.6841 10.9241H74.1411C68.2069 10.9241 62.5513 13.4084 58.5405 17.778L49.9655 27.12H114.661L103.125 15.6447C100.084 12.6223 95.9697 10.9241 91.6841 10.9241Z" stroke="#2A1246" stroke-width="6.64" stroke-miterlimit="10"/>
<path d="M92.9243 10.9244V27.1204" stroke="#2A1246" stroke-width="6.64" stroke-miterlimit="10"/>
<path d="M85.7383 57.272H74.9996V27.956L113.135 27.479C113.135 44.1939 102.453 57.272 85.7383 57.272Z" stroke="#2A1246" stroke-width="6.64" stroke-miterlimit="10"/>
<path d="M67.547 55.423C67.547 62.4753 61.8304 68.1958 54.7819 68.1958C47.7295 68.1958 42.0167 62.4753 42.0167 55.423C42.0167 48.3707 47.7295 42.6578 54.7819 42.6578C61.8304 42.6578 67.547 48.3707 67.547 55.423Z" stroke="#2A1246" stroke-width="6.64" stroke-miterlimit="10"/>
<path d="M134.362 55.423C134.362 62.4753 128.645 68.1958 121.593 68.1958C114.544 68.1958 108.832 62.4753 108.832 55.423C108.832 48.3707 114.544 42.6578 121.593 42.6578C128.645 42.6578 134.362 48.3707 134.362 55.423Z" stroke="#2A1246" stroke-width="6.64" stroke-miterlimit="10"/>
<path d="M61.9886 2.97913C56.1528 2.97913 27.0807 2.97913 27.0807 2.97913" stroke="#2A1246" stroke-width="5.95818" stroke-linecap="round"/>
<path d="M35.9903 15.623C35.9903 15.623 11.531 15.623 2.97906 15.623" stroke="#2A1246" stroke-width="5.95818" stroke-linecap="round"/>
</svg>
